<?xml version="1.0" encoding="UTF-8" standalone="no"?>
<svg
   width="1637"
   height="295"
   version="1.1"
   id="svg1"
   xmlns="http://www.w3.org/2000/svg"
   xmlns:svg="http://www.w3.org/2000/svg">
  <defs
     id="defs1" />
  <path
     d="m 0.051,123.807 v 0 c 0,-0.135 0,-0.27 0,-0.405 0,-68.104 55.484,-123.311 123.929,-123.311 38.19,0 72.344,17.188 95.077,44.212 -10.847,14.213 -18.843,30.698 -23.139,48.612 -11.916,-27.803 -39.64,-47.294 -71.938,-47.294 -43.173,0 -78.171,34.823 -78.171,77.781 0,0.135 0.001,0.27 0.001,0.405 h 0.13 v 122.136 c 0.012,0.008 0.019,0.01 0.019,0.01 0,25.023 -20.867,43.987 -45.908,43.987 -0.115,0 0,-22.147 0,-47.153 z M 123.98,246.713 c -19.944,0 -38.788,-4.688 -55.479,-13.016 v -55.499 c 14.162,14.195 33.789,22.985 55.479,22.985 43.173,0 78.171,-34.824 78.171,-77.781 h 45.759 c 0,68.103 -55.484,123.311 -123.93,123.311 z M 268.779,121.295 h 46.154 v 124.669 c 0.012,0.008 0.02,0.01 0.02,0.01 0,25.543 -20.988,44.9 -46.174,44.9 -0.116,0 0,-22.606 0,-48.131 z m 23.155,-86.336 c 8.238,0 16.132,1.516 23.434,4.29 v 56.023 h -90.525 c 4.465,-34.057 32.801,-60.313 67.091,-60.313 z m 166.864,255.764 c -67.409,0 -122.051,-54.491 -122.051,-121.71 0,-67.219 54.642,-121.709 122.051,-121.709 31.404,0 60.037,11.827 81.666,31.257 -11.252,10.103 -20.624,22.256 -27.525,35.872 -13.908,-13.719 -33.031,-22.19 -54.141,-22.19 -42.52,0 -76.985,34.37 -76.985,76.77 0,42.4 34.465,76.771 76.985,76.771 20.854,0 39.773,-8.309 53.638,-21.779 6.771,13.666 16.017,25.889 27.154,36.083 -21.526,19.048 -49.813,30.635 -80.792,30.635 z M 558.24,0.091 h 45.262 l 0.355,96.722 52.386,-62.393 c -0.004,-0.014 -0.009,-0.02 -0.009,-0.02 16.429,-19.567 44.958,-20.913 64.251,-4.734 0.089,0.075 -14.54,17.318 -30.957,36.871 l -55.824,66.487 82.265,97.914 c 0.014,-10e-4 0.021,-0.005 0.021,-0.005 16.429,19.567 12.801,47.878 -6.492,64.057 -0.089,0.075 -14.558,-17.337 -30.986,-36.904 -0.204,-0.243 -0.397,-0.483 -0.579,-0.722 l -73.813,-88.702 0.286,77.881 c 0.012,0.008 0.019,0.01 0.019,0.01 0,25.543 -20.988,44.9 -46.174,44.9 -0.114,0 -0.004,-21.814 0,-46.779 z m 399.515,0.112 c 80.372,0 145.523,64.969 145.523,145.115 0,80.146 -65.151,145.115 -145.523,145.115 -44.844,0 -84.95,-20.227 -111.646,-52.03 10.154,-13.332 18.18,-28.363 23.574,-44.591 16.775,31.634 50.058,53.184 88.377,53.184 55.204,0 99.955,-44.724 99.955,-99.893 0,-55.169 -44.751,-99.893 -99.955,-99.893 -54.617,0 -99.003,43.778 -99.94,98.138 l -45.913,0.206 C 812.319,65.502 877.453,0.203 957.755,0.203 Z m 166.268,168.575 h 0.063 c 0.41,-29.412 11.167,-56.334 28.815,-77.326 -0.01,-0.01 -0.015,-0.02 -0.023,-0.03 22.733,-27.024 56.887,-44.212 95.077,-44.212 0.01,0 0.016,0 0.024,0 0.01,0 0.016,0 0.024,0 38.19,0 72.344,17.188 95.077,44.212 -0.01,0.01 -0.015,0.02 -0.023,0.03 17.647,20.992 28.405,47.914 28.815,77.326 h 0.063 l -0.051,76.898 c 0.01,23.658 0.11,43.996 0,43.996 -24.941,0 -45.724,-18.866 -45.724,-43.761 0,0 -0.044,0.102 -0.052,0.134 v -77.189 c -0.891,-42.181 -35.526,-76.103 -78.129,-76.116 -42.603,0.013 -77.239,33.935 -78.129,76.116 v 77.189 c -0.01,-0.032 -0.052,-0.134 -0.052,-0.134 0,24.895 -20.783,43.761 -45.724,43.761 -0.11,0 -0.01,-20.338 0,-43.996 z m 45.827,77.267 c 0,0.006 0,0.01 0,0.009 z m 156.258,0.009 c 0,0.001 0,-0.003 0,-0.009 z m 310.055,-76.749 h -0.016 c 0.023,7.711 -0.681,15.447 -2.13,23.098 l -1.762,0.012 v 0.048 l -7.617,0.005 -37.042,0.253 c 0.024,-0.078 0.049,-0.155 0.073,-0.233 l -84.448,0.045 c -0.1,0.002 -0.2,0.003 -0.302,0.003 -25.419,0 -47.943,0.118 -47.943,0 0,-25.673 19.264,-47.067 44.683,-47.067 0,0 0,0.008 0.01,0.02 l 87.83,0.554 c -9.869,-31.093 -39.005,-53.707 -73.409,-53.707 -42.52,0 -76.985,34.371 -76.985,76.771 0,42.4 34.465,76.771 76.985,76.771 31.811,0 59.113,-19.238 70.849,-46.681 4.23,17.682 12.105,33.953 22.789,47.982 -22.389,26.673 -56.027,43.637 -93.638,43.637 -67.409,0 -122.051,-54.49 -122.051,-121.709 0,-67.219 54.642,-121.71 122.051,-121.71 67.35,0 121.979,54.768 122.073,121.908 z"
     fill="#000000"
     id="path1"
     style="fill:#ffffff;fill-opacity:1" />
</svg>
